<?xml version="1.0" encoding="UTF-8"?>
<svg width="296px" height="120px" viewBox="0 0 296 120" version="1.1" xmlns="http://www.w3.org/2000/svg" xmlns:xlink="http://www.w3.org/1999/xlink">
    <!-- Generator: Sketch 47.1 (45422) - http://www.bohemiancoding.com/sketch -->
    <title>changelly-logo-horizontal_vector</title>
    <desc>Created with Sketch.</desc>
    <defs></defs>
    <g id="Banners" stroke="none" stroke-width="1" fill="none" fill-rule="evenodd">
        <g id="changelly-logo-horizontal_vector" fill="#0FC270">
            <path d="M277.109554,45.2046017 C272.893262,49.6072223 268.036265,52.7109089 262.296893,54.8195967 C260.479312,55.4873663 259.531743,55.8489824 257.65234,55.7036704 C255.706618,55.5528121 253.626011,55.3764411 251.844401,54.5278634 C253.383218,52.7652623 254.920911,51.0037703 256.458604,49.2411692 C256.984657,48.6388454 257.623115,48.0476142 258.076105,47.3887186 C259.446315,45.3920653 259.195653,42.3671355 259.946515,40.0499084 C260.106129,39.8679911 260.215162,39.6771997 260.227526,39.4819714 C260.27586,38.7509745 259.72845,38.7520837 259.083249,38.9939006 C256.174221,40.0842952 253.370853,39.7016033 250.859737,41.1214457 C248.528469,42.4392368 246.1972,43.757028 243.865931,45.07371 C243.859187,45.0615082 243.858063,45.0459787 243.84907,45.0326677 C240.123986,39.69162 246.85589,32.6744929 250.263994,29.1714755 C255.113123,24.1864977 260.502917,21.0029449 267.294396,19.3667985 C274.507391,17.6286008 282.266672,17.0639916 289.694359,17.607525 C287.419293,27.6506913 284.450691,37.5385622 277.109554,45.2046017 M266.020853,63.2621125 C263.754779,64.2815149 261.47634,65.2887156 259.163056,66.2016299 C260.362412,64.0751941 261.865259,61.8034463 262.258675,59.4806729 C262.456507,58.318177 262.069836,57.5350452 261.367308,56.974873 C264.174047,55.939941 266.824545,54.7097807 269.328917,53.2477868 C267.829441,56.4246841 266.814428,59.8578186 266.020853,63.2621125 M240.262243,56.2638426 C244.15481,54.0553222 247.477487,51.2600075 250.71586,48.0709085 C251.203695,47.5917117 251.371178,47.0858928 250.697875,46.8407482 C250.023448,46.5956035 248.804984,47.6294262 248.399203,48.0298661 C245.677891,50.7076001 242.946462,53.0015329 239.682236,54.8240337 C239.937395,52.8018676 240.193677,50.7797015 240.449959,48.7575353 C243.149914,47.2312048 245.850994,45.7048743 248.550949,44.1785437 C249.3153,43.7459355 250.07965,43.3144365 250.845125,42.8818283 C250.990127,42.7997437 251.102531,42.7354071 251.201447,42.677726 C252.247933,42.5801118 254.953508,41.9678048 256.69915,41.5340873 C256.297866,42.7842142 256.064065,44.0332317 255.870729,45.3443674 C255.738092,46.2439707 255.841504,46.9805139 255.443592,47.7081831 C254.752304,48.9694025 253.295542,50.1685037 252.353593,51.2478057 C250.675394,53.1712484 248.996071,55.0946911 247.317872,57.0181338 C244.966371,56.7663337 242.613745,56.5156427 240.262243,56.2638426 M239.714834,36.198586 C237.295889,35.8924325 234.628531,36.6711273 232.187106,37.2967453 C233.661853,35.3256048 235.327687,33.4731542 236.992397,31.6517627 C240.256623,31.4997952 243.570307,31.1525993 246.751354,30.4049636 C246.087043,31.1503808 245.445214,31.9068906 244.829237,32.6733836 C243.819845,33.9290567 242.627234,35.4431855 241.627958,37.0848782 C241.187332,36.6245387 240.571356,36.3072926 239.714834,36.198586 M292.540441,15.2292891 C292.977694,15.2647852 293.055253,15.4788708 292.968702,15.8637811 C290.299095,27.7926755 286.470599,38.8496979 277.216339,47.4109036 C275.901206,48.6277529 274.536616,49.742551 273.123692,50.7697182 C271.653441,53.4252671 270.726104,56.3947343 269.903303,59.2954279 C269.520004,60.6464966 269.426708,62.6498055 268.388091,63.6969392 C267.273039,64.8195021 265.234022,65.3619262 263.823345,65.9797795 C261.416766,67.034678 259.007938,68.1117615 256.537287,69.0158018 C256.183213,69.1455843 255.006338,69.3008795 255.39301,68.5266217 C256.508062,66.3003533 258.092965,64.0330425 258.835959,61.6470418 C259.4643,59.6315312 258.372852,58.8916602 256.509186,58.3348158 C256.400154,58.3026475 256.345076,58.2383109 256.328215,58.1540077 C256.023599,58.155117 255.70999,58.1484615 255.371653,58.1218394 C253.488878,57.9765274 251.397031,57.8090304 249.598559,57.102437 C248.322768,58.5555569 247.222329,59.670355 245.061915,59.4385214 C242.324866,59.1467881 239.588941,58.8539456 236.851892,58.5622124 C236.587741,58.5333719 236.466344,58.4302114 236.446112,58.2815717 C236.299986,58.2516219 236.215682,58.1706465 236.235915,58.0164605 C236.251652,57.891115 236.264016,57.7646603 236.278629,57.6382056 C236.255024,57.5328267 236.270761,57.401935 236.322467,57.256623 C236.589989,54.8062857 236.700146,52.2306029 237.268912,49.8579132 C237.596009,48.4924242 239.139323,47.5994764 240.563487,46.870698 C239.593437,45.3610062 239.36638,43.7559188 239.603553,42.1508314 C239.481032,42.100915 239.400101,42.0099564 239.393357,41.8557704 C239.309054,39.9589497 238.775132,38.603444 236.673169,38.5757127 C234.160929,38.5435444 231.500315,39.4786437 229.067882,40.0077568 C228.332757,40.1674891 228.074226,39.6938385 228.467642,39.1192461 C229.826612,37.1336853 231.439616,35.3067475 233.022271,33.4931207 C234.028291,32.340608 235.003962,30.9374045 236.247156,30.0156162 C237.531939,29.0616596 239.117966,29.2502324 240.642171,29.1370887 C243.510733,28.9241124 246.384915,28.5691518 249.17367,27.8547936 C251.957929,25.1116138 255.077153,22.6646042 258.480761,20.8387757 C262.900505,18.4671952 267.838433,17.0761934 272.774114,16.2231787 C279.227255,15.1094899 285.9985,14.700176 292.540441,15.2292891 Z M247.554259,66.7295228 C248.22419,66.9702305 248.064575,67.4860326 247.572244,67.9596831 C237.653673,77.4937027 223.563772,77.9961938 210.913772,74.1936785 C210.00442,73.9208025 211.734325,72.5098342 211.888319,72.4022367 C216.447445,69.2075914 217.927812,64.9935437 219.356472,59.9264812 C220.528851,55.7690053 222.528527,52.4002075 225.997329,49.7080533 C226.360395,49.4263033 227.676652,48.4679097 228.224061,48.8761144 C228.800696,49.3042856 228.03747,50.0696694 227.650799,50.3702766 C223.57726,53.5316444 222.926439,57.8799116 221.455064,62.4611217 C220.174777,66.4444451 217.827772,69.5603335 214.705175,72.1548736 C224.756383,74.9867935 237.235528,75.6268319 245.254463,67.9175315 C245.67036,67.5193101 246.871964,66.4854874 247.554259,66.7295228 Z M264.179443,31.5522628 C264.162582,35.9260428 268.406975,38.8522492 272.586173,38.028075 C276.484361,37.2604728 279.717113,33.971541 279.919441,30.0214952 C279.404629,19.978329 264.215412,22.6727017 264.179443,31.5522628 Z M267.181766,30.0214952 C267.201999,26.7924631 269.822147,24.8446169 272.94362,25.963852 C275.394037,26.8423794 276.788977,29.0520091 276.917118,31.5522628 C276.554051,38.6592393 267.143549,35.9460093 267.181766,30.0214952 Z M204.519981,77.3670261 C205.05615,77.5433972 205.45069,77.7264237 204.738046,78.1701245 C201.524402,80.1734333 197.820674,80.8966655 194.167529,81.7729745 C193.849424,83.1151692 193.516707,84.4495992 193.146896,85.7673904 C191.708119,90.9065542 189.926508,97.0307336 185.553974,100.544843 C182.499944,102.997399 175.363384,105.404476 172.73874,101.103906 C171.174069,98.5382069 172.48583,95.2115606 173.972941,92.940922 C176.26262,89.447888 179.744911,86.5627239 183.381195,84.506171 C185.723705,83.1817243 188.21796,82.1922717 190.78865,81.4191231 C191.249509,79.401394 191.69463,77.3781187 192.18921,75.3725913 C190.025424,77.2206049 187.460354,78.5162111 184.551326,78.8123813 C180.812753,79.1939639 179.900029,77.2050754 180.200149,74.6094261 C177.060692,77.5267584 171.259497,80.3498044 168.794467,75.3426415 C168.392059,74.5262322 168.06721,73.670999 167.809804,72.7880345 C165.268338,75.5600549 161.780428,78.6360103 157.748479,78.3919749 C154.95298,78.2222593 153.879517,75.6609968 153.488349,72.8812117 C151.973137,74.3609536 150.342148,75.7086946 148.567282,76.8612073 C144.782623,79.3204186 136.727718,81.9127402 133.66582,77.1130075 C130.80063,78.5383961 127.945557,79.9859698 125.112964,81.475695 C123.842793,87.1251146 122.571499,93.2038147 119.149906,98.0179677 C116.358903,101.944719 111.156824,105.19039 106.100871,104.254182 C100.056882,103.136056 101.649654,96.666899 104.475502,93.1705372 C107.341816,89.6253683 111.478301,87.3502927 115.400093,85.1195873 C117.417753,83.9715116 119.454523,82.8556043 121.503656,81.7629912 C121.74083,80.7258407 121.984747,79.6909088 122.248898,78.6604138 C120.454922,79.6021686 118.419277,80.1024412 116.31619,80.0369953 C114.499733,79.9793142 112.748472,79.3037799 111.65028,78.1279729 C110.70271,78.4241432 109.742776,78.6715063 108.773849,78.8611884 C106.692118,79.2693931 101.14271,80.1124245 100.326653,77.2294789 C99.4532703,74.1435403 104.163018,71.0553832 102.792807,68.0359996 C100.954994,63.9861211 91.8670923,76.3908845 90.6587442,78.2976884 C90.125947,79.1385013 86.7639292,79.4468734 87.0550567,78.9266342 C88.4218952,76.4884987 89.8348194,73.3726103 90.0270311,70.3787395 C87.7958022,73.6610157 85.4948826,76.7724672 81.0953715,77.5533805 C78.8045683,77.9604759 76.2777157,77.5922043 75.7921284,74.9666052 C75.7145693,74.5450895 75.6954605,74.1235738 75.7156933,73.7031673 C74.1780001,75.4491297 72.4784445,76.996536 70.2652003,77.7896511 C67.0065946,78.9576933 63.1915868,78.3065625 63.7895786,74.115809 C64.7180395,67.6155932 75.0525069,62.7237925 80.3242768,67.2118255 C80.4771469,67.341608 80.3456336,67.5368363 80.0668705,67.7409386 C80.3220287,67.7841995 80.4726507,67.9062172 80.4254408,68.1524711 C80.1320651,69.6654906 79.5070963,71.1008625 79.4048082,72.6549243 C79.2957759,74.3221298 80.0803591,77.0708559 82.3767825,75.8406956 C84.1808743,74.8745373 85.4656575,72.5794952 86.5503607,70.9455672 C87.5664971,69.4147997 88.5477882,67.8740489 89.7347794,66.465299 C90.1169546,66.011615 92.8910971,64.9855571 93.214822,65.852992 C93.7622318,67.3216414 93.8218061,68.9267289 93.5823846,70.5429088 C94.8536792,69.3038745 96.2216417,68.1968411 97.6986365,67.3127674 C99.672459,66.1325235 102.41288,65.1197765 104.743025,65.725428 C107.587982,66.465299 106.429092,69.5113046 105.563578,71.4036882 C104.538449,73.6432677 102.388151,77.0153933 106.179554,77.6687427 C107.744224,77.9382908 109.380834,77.6698519 110.956744,77.1496128 C110.516119,76.2899426 110.366621,75.2583384 110.652128,74.0725482 C111.676133,69.8108026 116.555611,66.0792794 120.75167,65.1907687 C122.635569,64.7925472 127.113763,64.7836732 126.337049,67.781981 C125.625528,70.5251608 122.183703,72.7281349 119.952474,74.1723808 C118.382184,75.1873463 116.711853,76.098042 114.976328,76.8667536 C115.080864,76.9932083 115.192145,77.1174445 115.318038,77.2383529 C118.285516,80.0957857 121.658774,77.6998017 123.367322,74.8490245 C123.791087,74.1402125 127.243029,73.4125433 126.969886,74.2189694 C126.366274,76.0004279 125.932392,77.8306934 125.519868,79.6642867 C128.018619,78.3775546 130.530859,77.1185537 133.053216,75.8773009 C131.431219,71.4436213 135.152932,66.4675175 139.274804,64.9966496 C141.483552,64.2079715 145.328909,63.4647728 147.086915,65.553494 C148.976434,67.799729 146.488923,70.5029757 144.584791,71.7131695 C142.226545,73.2117687 139.540078,74.3398779 136.957023,75.5223403 C137.386408,76.3820105 138.0732,77.1185537 139.078096,77.6254818 C142.65593,79.4313438 146.023568,76.833476 148.618988,74.5439802 C150.325288,73.0387255 151.865229,71.3681922 153.280401,69.5978262 C153.277029,68.6904582 153.30513,67.8607378 153.323115,67.200733 C153.482729,61.3339 154.287545,55.2707294 155.996093,49.6390578 C157.050447,46.1637718 158.364456,41.6779573 161.435346,39.3574024 C163.576651,37.7401133 166.785799,37.1766133 168.950709,38.9980048 C170.648017,40.425612 169.79037,42.7517131 169.292419,44.6152562 C168.308879,48.2913168 166.817272,51.8542337 165.186283,55.2906959 C162.969667,59.9584277 160.313549,64.7858917 156.977384,68.9943932 C156.999865,69.5689857 157.033587,70.1424689 157.088665,70.7137336 C157.257271,72.4763348 157.510182,74.9521849 158.898377,76.2566651 C159.208613,76.547289 160.212385,76.811291 159.952731,76.9288717 C160.374248,76.79798 160.925029,76.3343127 161.266739,76.0836218 C162.811177,74.9444201 164.146542,73.4924095 165.389735,72.0492728 C166.004588,71.3371331 166.607076,70.6016991 167.203943,69.8529542 C166.471066,64.2179548 167.886239,57.9140766 169.58467,52.9645948 C171.192054,48.2768965 173.857164,41.3973166 179.107577,39.6114211 C180.657635,39.0845265 182.900104,38.7362214 183.99942,40.2780815 C184.737917,41.3152319 184.398456,42.7572593 184.147794,43.9153183 C183.064215,48.9246996 180.43957,53.7588191 177.950935,58.202482 C175.835483,61.9805938 173.514331,65.7154448 170.846972,69.1663273 C171.118991,71.2916538 171.712487,73.2982904 172.774709,74.9998827 C173.117543,75.5489624 173.515455,76.0070834 174.065113,76.357607 C174.296666,76.5062467 174.887913,76.5417428 174.741788,76.6082979 C175.739939,76.3176739 176.875224,74.9200166 177.531667,74.2378267 C180.015805,71.6554884 181.988504,68.6094828 183.84093,65.5701328 C184.395084,64.6627648 187.71214,64.4985955 187.443493,64.941187 C185.785527,67.654417 183.730773,70.966643 183.676819,74.2544655 C183.655462,75.5101386 184.112949,77.3625891 185.721457,77.3736817 C187.4064,77.3836649 189.349873,75.2616661 190.396359,74.1646161 C192.093666,72.3864854 193.390814,70.2977641 194.382221,68.0737142 C194.629511,67.4126001 194.89029,66.755923 195.172425,66.1070107 C195.552352,65.2351387 199.026774,64.7747992 198.776112,65.4780649 C198.559172,66.0814979 198.31413,66.6893679 198.043235,67.2961287 C196.441471,71.5345799 195.498398,76.0259407 194.473269,80.4640573 C197.038339,79.9027759 199.716938,79.4335623 201.93805,78.0503253 C202.512437,77.6920369 203.835438,77.141848 204.519981,77.3670261 Z M186.151966,95.6608076 C188.238193,91.5809793 189.4353,87.2083085 190.473918,82.7835029 C189.558945,83.0785639 188.657461,83.4113394 187.781831,83.8162164 C183.89376,85.6120951 180.249607,88.5094609 177.793569,91.998058 C176.318822,94.094544 174.976713,97.0684482 176.113122,99.5997609 C177.21019,102.040115 179.948363,102.409496 182.033466,100.953048 C183.885892,99.6607697 185.148194,97.6241833 186.151966,95.6608076 Z M172.174469,55.6878081 C171.453957,58.4365342 170.797514,61.8020043 170.682862,65.1463986 C174.602406,59.413785 177.885741,53.0322592 179.943867,46.6973219 C180.359763,45.4150268 180.877948,43.9375033 180.780156,42.5675773 C180.73969,42.0129514 180.659883,41.5903264 180.261971,41.1721385 C180.215885,41.1233314 179.966348,40.9824564 179.751655,40.8593294 C179.741539,40.8715312 179.73367,40.8804052 179.721306,40.8937162 C175.932151,45.2042689 173.630107,50.1404396 172.174469,55.6878081 Z M160.110097,47.4061338 C158.436394,52.3722543 157.600105,57.5790825 157.17072,62.7848014 C157.131378,63.2584519 157.097657,63.7332117 157.066184,64.2079715 C160.73057,58.3666513 163.910492,51.8941668 165.689855,45.2453112 C166.20804,43.306339 167.001615,41.1932142 165.059266,39.8754231 C164.799612,39.699052 164.355614,39.5737066 164.26569,39.4450333 C164.053246,39.6480264 163.834057,39.9109191 163.745258,40.0096425 C163.183235,40.6363698 162.739238,41.3873333 162.335706,42.1183303 C161.410617,43.7966283 160.720453,45.5969441 160.110097,47.4061338 Z M117.970783,94.2198894 C119.43991,90.8078307 120.271703,87.2293843 121.078767,83.6431731 C120.043522,84.21111 119.007153,84.779047 117.982024,85.3636227 C113.192469,88.0979285 105.516368,92.0579576 105.445553,98.3762561 C105.408459,101.752819 108.722143,103.909204 111.782917,102.223141 C114.795357,100.563701 116.666892,97.248147 117.970783,94.2198894 Z M139.282672,66.6394516 C137.288617,68.3077663 135.998213,71.5367985 136.509654,74.1856919 C137.683156,73.6144272 138.857783,73.045381 140.033534,72.477444 C141.520645,71.7586488 143.093184,71.0065761 143.794588,69.4147997 C145.10972,66.4309122 141.486924,64.7947657 139.282672,66.6394516 Z M117.538026,68.5451462 C115.742927,70.2378645 113.480225,73.1818189 114.31539,75.6931651 C114.684077,75.5023738 115.041523,75.3082547 115.385481,75.1174634 C117.853883,73.7442096 120.84609,71.8906498 122.291611,69.3870684 C122.673787,68.7237358 123.066078,67.8596286 122.524289,67.1674554 C121.103496,65.3538287 118.663195,67.4847015 117.538026,68.5451462 Z M71.3656402,75.0220677 C73.345083,72.9743888 74.9580872,70.6161194 76.9701273,68.5972811 C76.988112,68.579533 77.0173371,68.5584573 77.0488104,68.5373815 C76.9858639,68.5129779 76.9307857,68.4830281 76.8858239,68.4442043 C74.8411865,66.7037882 72.7527114,66.6039555 70.6417553,68.2722703 C69.0242549,69.5512377 67.5360197,71.5334707 67.3842737,73.6421585 C67.3280714,74.433055 67.443848,75.5012645 67.9564124,76.1479584 C69.151272,77.6576501 70.4765208,75.9405283 71.3656402,75.0220677 Z M57.9041927,52.316459 C54.119534,58.509412 49.2692809,64.213185 43.8817344,69.1626667 C43.3523094,71.2669175 42.915056,73.3900255 42.614936,75.5164613 C42.8577297,75.2524594 43.0949031,74.9951129 43.3242082,74.7643885 C44.9169796,73.1570826 46.483898,71.5209362 48.1688411,70.0068074 C50.7406555,67.6962358 54.2341866,64.8266013 57.9862479,65.3623699 C61.3921035,65.847113 60.8907796,68.569217 59.7184009,70.9297049 C58.8146689,72.7510964 55.651607,76.7854454 59.49584,76.8775133 C61.9597461,76.9363037 59.5835155,79.0893615 58.1121409,79.0538654 C55.3042772,78.9873103 53.139367,77.8547642 54.2409308,74.8597842 C54.7872166,73.374496 57.9188052,69.5509049 56.9375142,67.9680025 C55.5605594,65.746171 49.8391716,71.894754 48.9253232,72.7965758 C46.5569609,75.1370972 44.2684058,78.2052878 41.1851511,79.6695002 C40.5242128,79.9834185 38.5267853,80.2751517 38.6133367,79.0605209 C38.722369,77.5253164 38.9572944,76.0023136 39.2383056,74.4892941 C39.3372215,73.955744 39.4406336,73.4221938 39.5485419,72.8886437 C34.1913447,77.2014148 27.8787094,81.1248386 20.9748265,81.8902224 C14.5677715,82.6001436 6.24984032,80.0632846 3.80167086,73.6107666 C1.36024567,67.1815429 4.94032819,59.6663617 8.56874464,54.4073987 C12.9648836,48.0369654 19.2112003,42.2777298 26.5264835,39.3692714 C30.7101781,37.7053937 43.6816545,35.2949894 43.1837026,43.0331303 C42.8880789,47.6187774 35.7234177,54.0291438 31.3418912,50.0635685 C30.2762968,49.0996286 33.7181218,47.705299 34.7207697,48.6126671 C36.2820679,50.0258539 38.5234131,46.5550049 39.0359775,45.3980552 C40.3893274,42.3487219 38.496436,40.2954967 35.3817081,39.9028216 C28.4013902,39.0198571 21.6953392,43.9327335 17.0575306,48.5239269 C10.335743,55.1772195 -0.0953922774,71.9346871 12.7872846,78.1187661 C22.6406608,82.848616 32.7402029,76.2918283 40.3971957,69.0816913 C42.0574098,62.2242964 44.4505011,55.4345659 47.5967023,49.180604 C49.1377677,46.1168504 50.9710847,42.8545407 53.6980172,40.6526758 C55.3986969,39.279422 58.9484302,37.5345689 60.900896,39.3714899 C64.1831066,42.4607563 59.5790193,49.5743884 57.9041927,52.316459 Z M51.3645003,48.6559279 C49.598626,52.0458015 48.1845777,55.6087184 46.935764,59.2115684 C46.383858,60.8022356 45.8409444,62.4195248 45.3306281,64.0567805 C45.7172995,63.6352648 46.0927305,63.2204046 46.4557969,62.8155277 C50.5360793,58.2653766 54.5017092,53.1550534 56.9521268,47.537802 C57.635546,45.9704292 58.5089287,43.8983467 58.1852038,42.1479473 C58.0975284,41.670969 57.9424102,41.1673687 57.5534907,40.8534504 C57.5197694,40.8634337 57.486048,40.8745262 57.4410862,40.8922742 C57.0555389,41.0442417 56.7228216,41.3060252 56.4024689,41.5600438 C54.1577515,43.3348468 52.6526556,46.1822963 51.3645003,48.6559279 Z" id="Combined-Shape"></path>
        </g>
    </g>
</svg>